# xmcd
#
# Track frame offsets:
#	150
#	10062
#	55252
#	103687
#	116505
#	170042
#	222790
#	231697
#
# Disc length: 3361 seconds
#
# Revision: 1
# Processed by: cddbd v1.5.1PL0 Copyright (c) Steve Scherf et al.
# Submitted via: CDex 1.50Beta5
#
DISCID=6d0d1f08
DTITLE=エンジェルス - 電脳戦隊ブギィ’ズ・エンジェルVol.3 「決戦!天使対堕天使」
DYEAR=1996
DGENRE=
TTITLE0=エンジェルス/もっともっとRadical Fight!
TTITLE1=久川綾/狙われた天使たち*ドラマ
TTITLE2=久川綾/堕天使 降臨*ドラマ
TTITLE3=菊池志穂/ときめきRevolution
TTITLE4=久川綾/初めての敗北*ドラマ
TTITLE5=久川綾/決戦!天使対堕天使*ドラマ
TTITLE6=久川綾/恋のプログラム
TTITLE7=久川綾/進め!スーパーエンジェルス*ドラマ
EXTD=
EXTT0=
EXTT1=
EXTT2=
EXTT3=
EXTT4=
EXTT5=
EXTT6=
EXTT7=
PLAYORDER=
